<svg t="1744497632727" class="icon" viewBox="0 0 1024 1024" version="1.1" xmlns="http://www.w3.org/2000/svg" p-id="75673" width="200" height="200"><path d="M928 832H96c-17.6 0-32-14.4-32-32s14.4-32 32-32h832c17.6 0 32 14.4 32 32s-14.4 32-32 32z m-96 0H192c-17.6 0-32-14.4-32-32V480c0-193.6 158.4-352 352-352s352 158.4 352 352v320c0 17.6-14.4 32-32 32z m-608-64h576V480c0-158.4-129.6-288-288-288S224 321.6 224 480v288z m288 192c-88 0-160-72-160-160 0-17.6 14.4-32 32-32s32 14.4 32 32c0 52.8 43.2 96 96 96s96-43.2 96-96c0-17.6 14.4-32 32-32s32 14.4 32 32c0 88-72 160-160 160z m0-800c-17.6 0-32-14.4-32-32V64c0-17.6 14.4-32 32-32s32 14.4 32 32v64c0 17.6-14.4 32-32 32z" fill="#e6e6e6" p-id="75674"></path></svg>