<svg t="1744500283809" class="icon" viewBox="0 0 1024 1024" version="1.1" xmlns="http://www.w3.org/2000/svg" p-id="81797" width="200" height="200"><path d="M0 0h1024v1024H0V0z" fill="#202425" opacity=".01" p-id="81798"></path><path d="M221.866667 68.266667A119.466667 119.466667 0 0 1 341.333333 187.733333v68.266667a119.466667 119.466667 0 1 1-238.933333 0v-68.266667A119.466667 119.466667 0 0 1 221.866667 68.266667zM34.133333 716.8a273.066667 273.066667 0 0 1 273.066667-273.066667h409.6a273.066667 273.066667 0 0 1 273.066667 273.066667v68.266667a34.133333 34.133333 0 0 1-34.133334 34.133333H68.266667a34.133333 34.133333 0 0 1-34.133334-34.133333v-68.266667zM921.6 187.733333a119.466667 119.466667 0 1 0-238.933333 0v68.266667a119.466667 119.466667 0 1 0 238.933333 0v-68.266667z" fill="#f4ea2a" p-id="81799" data-spm-anchor-id="a313x.search_index.0.i109.45b03a815OtvRk" class=""></path><path d="M648.533333 341.333333a136.533333 136.533333 0 0 0-273.066666 0v68.266667a136.533333 136.533333 0 0 0 273.066666 0v-68.266667z m-136.533333 273.066667a307.2 307.2 0 0 0-307.2 307.2v17.885867c0 8.977067 7.2704 16.247467 16.247467 16.247466h581.905066a16.247467 16.247467 0 0 0 16.247467-16.247466V921.6a307.2 307.2 0 0 0-307.2-307.2z" fill="#d81e06" p-id="81800" data-spm-anchor-id="a313x.search_index.0.i108.45b03a815OtvRk" class="selected"></path></svg>