<svg t="1744500855960" class="icon" viewBox="0 0 1121 1024" version="1.1" xmlns="http://www.w3.org/2000/svg" p-id="84011" width="200" height="200"><path d="M541.503587 999.616871L43.798196 804.795666A19.460785 19.460785 0 0 1 24.383129 785.380599V43.798196A19.460785 19.460785 0 0 1 43.798196 24.383129l497.705391 194.821205a19.460785 19.460785 0 0 1 19.415066 19.399827V980.201804a19.460785 19.460785 0 0 1-19.415066 19.415067z" fill="#FF505E" p-id="84012"></path><path d="M541.503587 1024h-4.571837L38.327232 828.843528A43.874394 43.874394 0 0 1 0 785.380599V43.798196A43.843915 43.843915 0 0 1 43.798196 0h4.571837l498.604518 195.156472a43.859154 43.859154 0 0 1 38.327232 43.447689V980.201804a43.843915 43.843915 0 0 1-43.798196 43.798196zM48.766259 780.564931l487.769265 190.919904V243.435069L48.766259 52.515165z" fill="#333333" p-id="84013"></path><path d="M584.920796 1024h-4.571836a43.843915 43.843915 0 0 1-43.782957-43.798196V238.604161a43.843915 43.843915 0 0 1 38.311992-43.447689L1073.436795 0h4.571837a43.843915 43.843915 0 0 1 43.798196 43.798196v741.582403A43.874394 43.874394 0 0 1 1083.525315 828.843528z m0.380987-780.564931v728.049766L1073.071048 780.564931V52.515165zM415.214216 398.892758a24.383129 24.383129 0 0 1-8.884603-1.691579l-244.51707-95.856178A24.383129 24.383129 0 1 1 179.612227 256.022859l244.51707 95.856178a24.383129 24.383129 0 0 1-8.915081 47.089919zM415.214216 594.33878a24.047861 24.047861 0 0 1-8.884603-1.691579L161.812543 496.806262a24.383129 24.383129 0 1 1 17.799684-45.398339l244.51707 95.856178a24.383129 24.383129 0 0 1-8.915081 47.089919zM415.214216 789.068548a24.383129 24.383129 0 0 1-8.884603-1.67634l-244.51707-95.871417A24.383129 24.383129 0 1 1 179.612227 646.15293l244.51707 95.856178a24.383129 24.383129 0 0 1-8.915081 47.089919z" fill="#333333" p-id="84014"></path><path d="M706.607852 399.273745a24.383129 24.383129 0 0 1-8.930321-47.07468L942.194601 256.022859A24.383129 24.383129 0 1 1 960.085722 301.329762l-244.547549 96.252403a24.611721 24.611721 0 0 1-8.930321 1.69158zM706.607852 594.674048a24.383129 24.383129 0 0 1-8.930321-47.089918l244.51707-96.237164A24.383129 24.383129 0 1 1 960.085722 496.714826L715.538173 592.967229a24.383129 24.383129 0 0 1-8.930321 1.706819zM706.607852 789.403816a24.383129 24.383129 0 0 1-8.930321-47.074679L942.194601 646.15293A24.383129 24.383129 0 1 1 960.085722 691.520791l-244.547549 96.237164a24.383129 24.383129 0 0 1-8.930321 1.645861z" fill="#333333" p-id="84015"></path></svg>