<svg t="1744456413074" class="icon" viewBox="0 0 1024 1024" version="1.1" xmlns="http://www.w3.org/2000/svg" p-id="60771" width="200" height="200"><path d="M902.981818 116.363636c-9.309091-20.945455-30.254545-34.909091-53.527273-34.909091H167.563636c-23.272727 0-44.218182 13.963636-53.527272 34.909091s-4.654545 46.545455 9.309091 62.836364l279.272727 295.563636V861.090909c0 13.963636 9.309091 27.927273 23.272727 32.581818l139.636364 46.545455c4.654545 2.327273 6.981818 2.327273 11.636363 2.327273 6.981818 0 13.963636-2.327273 20.945455-6.981819 9.309091-6.981818 13.963636-16.290909 13.963636-27.927272V474.763636l279.272728-295.563636c16.290909-16.290909 20.945455-41.890909 11.636363-62.836364zM551.563636 437.527273c-6.981818 6.981818-9.309091 13.963636-9.309091 23.272727v397.963636l-69.818181-23.272727V460.8c0-9.309091-2.327273-18.618182-9.309091-23.272727L193.163636 151.272727h628.363637L551.563636 437.527273zM914.618182 581.818182c0 18.618182-16.290909 34.909091-34.909091 34.909091h-186.181818c-18.618182 0-34.909091-16.290909-34.909091-34.909091s16.290909-34.909091 34.909091-34.909091h186.181818c20.945455 0 34.909091 16.290909 34.909091 34.909091z m0 279.272727c0 18.618182-16.290909 34.909091-34.909091 34.909091h-186.181818c-18.618182 0-34.909091-16.290909-34.909091-34.909091s16.290909-34.909091 34.909091-34.909091h186.181818c20.945455 0 34.909091 16.290909 34.909091 34.909091z m0-139.636364c0 18.618182-16.290909 34.909091-34.909091 34.909091h-186.181818c-18.618182 0-34.909091-16.290909-34.909091-34.909091s16.290909-34.909091 34.909091-34.90909h186.181818c20.945455 0 34.909091 16.290909 34.909091 34.90909z" fill="#bfbfbf" p-id="60772"></path></svg>