<svg t="1744457708776" class="icon" viewBox="0 0 1024 1024" version="1.1" xmlns="http://www.w3.org/2000/svg" p-id="62812" width="200" height="200"><path d="M836.3 286.2H186.5c-34.6 0-62.9 28.3-62.9 62.9v422.5c0 34.6 28.3 62.9 62.9 62.9h649.9c34.6 0 62.9-28.3 62.9-62.9V349.1c0-34.6-28.4-62.9-63-62.9z" fill="#D6292C" p-id="62813"></path><path d="M123 451.4h776.8v104.9H123zM219.8 655.3h217.4V714H219.8z" fill="#E67F80" p-id="62814"></path><path d="M649 252.7c-10.4-10.4-24.4-16.1-39.3-16.1s-27.2 5.7-37.5 16l-4.2 5.5V149.5c0-30.4-23.6-55.1-54-55.1s-54 24.7-54 55.1v107.9l-7-4.7c-10.4-10.4-25.2-16.1-39.8-16.1-14.6 0-29.1 5.7-39.5 16.1-10.4 10.4-16.5 24.3-16.4 39 0 14.7 5.6 28.5 16 38.9l138 138 138-138c10.4-10.4 16.1-24.2 16.1-38.9-0.2-14.7-6-28.6-16.4-39z" fill="#D6292C" p-id="62815"></path><path d="M664 237.9c-14.4-14.4-32.7-22.3-53.1-22.3-8.2 0-16.8 1.3-22.8 3.7v-69.8c0-41.9-35.1-76-77-76s-77 34.1-77 76V219c-6-2.2-14.6-3.4-22.4-3.4-20.2 0-39.2 7.9-53.6 22.3-14.4 14.4-22.3 33.5-22.2 53.9 0.1 20.3 8 39.3 22.3 53.6l123.2 123.2 29.7 29.6 29.7-29.7L664 345.3c14.4-14.4 22.3-33.4 22.3-53.7-0.1-20.2-8-39.3-22.3-53.7z m-29.8 77.9L511 439 387.8 315.8c-13.3-13.3-13.4-34.9-0.1-48.2 6.7-6.7 15.3-10 24-10s18.8 3.3 25.4 10l41.9 40.9v-159c0-18.8 16.2-34.1 35-34.1s35 15.3 35 34.1v158.9l39-40.9c6.7-6.7 14.3-10 23.2-10 8.8 0 17.1 3.3 23.7 10 13.3 13.4 12.6 35-0.7 48.3z" fill="#FFFFFF" p-id="62816"></path></svg>