<svg t="1744457786842" class="icon" viewBox="0 0 1024 1024" version="1.1" xmlns="http://www.w3.org/2000/svg" p-id="63831" width="200" height="200"><path d="M896.36 714.83c-9.69 0-17.52 7.84-17.52 17.52 0 33.1-26.94 60.03-60.03 60.03H159.75c-33.1 0-60-26.94-60-60.03V384.86h779.08v50.98c0 9.69 7.84 17.52 17.52 17.52 9.69 0 17.52-7.84 17.52-17.52V291.63c0-52.42-42.65-95.06-95.08-95.06H159.75c-52.4 0-95.05 42.65-95.05 95.06v440.73c0 52.43 42.65 95.08 95.05 95.08H818.8c52.43 0 95.08-42.65 95.08-95.08 0-9.69-7.84-17.53-17.52-17.53zM99.75 291.63c0-33.1 26.9-60.01 60-60.01H818.8c33.1 0 60.03 26.92 60.03 60.01v58.18H99.75v-58.18z" p-id="63832" fill="#2aa515"></path><path d="M418.46 652.44H224.64c-9.69 0-17.52 7.84-17.52 17.52 0 9.69 7.84 17.52 17.52 17.52h193.82c9.69 0 17.52-7.84 17.52-17.52 0-9.69-7.83-17.52-17.52-17.52zM418.46 566.55H224.64c-9.69 0-17.52 7.84-17.52 17.52s7.84 17.52 17.52 17.52h193.82c9.69 0 17.52-7.84 17.52-17.52s-7.83-17.52-17.52-17.52zM952.45 572.64L767.67 430.79c-5.27-4.06-12.49-4.79-18.41-1.81a17.51 17.51 0 0 0-9.79 15.71v64.91H529.69c-9.69 0-17.52 7.84-17.52 17.52v109.9c0 9.69 7.84 17.52 17.52 17.52h209.77v73.86c0 6.67 3.8 12.77 9.79 15.73 2.43 1.2 5.1 1.81 7.73 1.81 3.8 0 7.56-1.23 10.68-3.65l184.79-141.87c4.31-3.32 6.85-8.45 6.85-13.9s-2.54-10.56-6.85-13.88zM774.51 692.86v-55.84c0-9.69-7.84-17.52-17.52-17.52H547.22v-74.85h209.77c9.69 0 17.52-7.84 17.52-17.52v-46.89l138.48 106.31-138.48 106.31z" p-id="63833" fill="#2aa515"></path></svg>