<svg t="1744298832374" class="icon" viewBox="0 0 1024 1024" version="1.1" xmlns="http://www.w3.org/2000/svg" p-id="32736" width="200" height="200"><path d="M484.906667 428.586667v89.173333h63.36c19.2 0 33.28-3.626667 42.026666-10.666667 8.746667-7.466667 13.226667-18.773333 13.226667-34.133333 0-16-4.48-27.093333-13.44-33.493333-8.746667-7.04-22.613333-10.666667-41.6-10.666667h-63.573333zM300.373333 437.12l-42.453333 115.2h85.76l-42.026667-115.2z" p-id="32737" fill="#d81e06"></path><path d="M853.333333 298.666667h-62.72V170.666667c0-47.146667-38.186667-85.333333-85.333333-85.333334h-384c-47.146667 0-85.333333 38.186667-85.333333 85.333334v128H170.666667c-47.146667 0-85.333333 38.186667-85.333334 85.333333v277.333333c0 47.146667 38.186667 85.333333 85.333334 85.333334h65.28v106.666666c0 47.146667 38.186667 85.333333 85.333333 85.333334h384c47.146667 0 85.333333-38.186667 85.333333-85.333334v-106.666666H853.333333c47.146667 0 85.333333-38.186667 85.333334-85.333334V384c0-47.146667-38.186667-85.333333-85.333334-85.333333zM310.613333 196.906667c0-22.4 17.493333-40.533333 39.253334-40.533334h326.826666c21.76 0 39.253333 18.133333 39.253334 40.533334V298.666667h-405.333334V196.906667z m331.733334 275.84c0 52.053333-30.506667 78.08-91.52 78.08h-65.92v98.986666h-38.826667V395.52h105.386667c60.586667 0 90.88 25.813333 90.88 77.226667z m-420.053334 177.066666H180.906667l97.92-254.293333h44.16l97.92 254.293333h-41.6l-23.893334-65.493333h-109.44l-23.68 65.493333zM566.613333 896h-106.666666c-11.733333 0-21.333333-9.6-21.333334-21.333333s9.6-21.333333 21.333334-21.333334h106.666666c11.733333 0 21.333333 9.6 21.333334 21.333334s-9.6 21.333333-21.333334 21.333333z m149.333334-104.533333c0 22.4-17.493333 40.533333-39.253334 40.533333H349.866667c-21.76 0-39.253333-18.133333-39.253334-40.533333V746.666667h405.333334v44.8z m67.2-240.64h-65.92v98.986666H678.4V395.52h105.386667c60.586667 0 90.88 25.813333 90.88 77.226667 0 52.053333-30.506667 78.08-91.52 78.08z" p-id="32738" fill="#d81e06"></path><path d="M822.186667 439.253333c-8.746667-7.04-22.613333-10.666667-41.6-10.666666h-63.36v89.173333h63.36c19.2 0 33.28-3.626667 42.026666-10.666667 8.746667-7.466667 13.226667-18.773333 13.226667-34.133333 0-16-4.48-27.306667-13.653333-33.706667z" p-id="32739" fill="#d81e06"></path></svg>