<?xml version="1.0" encoding="utf-8"?>
<svg version="1.1" xmlns:xlink="http://www.w3.org/1999/xlink" width="200px" height="200px" xmlns="http://www.w3.org/2000/svg">
  <defs>
    <path d="M 0 0  L 1024 0  L 1024 1024  L 0 1024  Z " fill-rule="evenodd" fill="black" id="path12" />
    <clipPath id="clip13">
      <use xlink:href="#path12" />
    </clipPath>
    <filter x="-50.00%" y="-50.00%" width="200.00%" height="200.00%" filterUnits="objectBoundingBox" id="filter14">
      <feColorMatrix type="matrix" values="1 0 0 0 0  0 1 0 0 0  0 0 1 0 0  0 0 0 1 0  " in="SourceGraphic" />
    </filter>
  </defs>
  <g transform="matrix(1 0 0 1 -1200 -2325 )">
    <g transform="matrix(0.1953125 0 0 0.1953125 1200 2325 )" clip-path="url(#clip13)" filter="url(#filter14)">
      <path d="M418.037453 538.846442H64.559301a63.9201 63.9201 0 0 0-63.9201 63.9201V958.801498a63.9201 63.9201 0 0 0 63.9201 63.9201h353.478152a63.9201 63.9201 0 0 0 63.9201-63.9201V602.766542a63.9201 63.9201 0 0 0-63.9201-63.9201z m0 419.955056H64.559301V602.766542h353.478152z" fill="" p-id="48053"></path>
      <path d="M145.418227 684.90387h191.7603v191.7603h-191.7603zM418.037453 0H64.559301a63.9201 63.9201 0 0 0-63.9201 63.9201v347.086142a63.9201 63.9201 0 0 0 63.9201 63.9201h353.478152a63.9201 63.9201 0 0 0 63.9201-63.9201V63.9201a63.9201 63.9201 0 0 0-63.9201-63.9201z m0 411.006242H64.559301V63.9201h353.478152z" fill="" p-id="48054"></path>
      <path d="M145.418227 141.583021h191.7603v191.7603h-191.7603zM991.400749 537.88764H577.518102a31.96005 31.96005 0 0 0-29.722846 40.589264V990.761548a31.96005 31.96005 0 0 0 63.9201 0V601.80774H991.400749a31.96005 31.96005 0 0 0 0-63.9201zM959.440699 0H609.797753a63.9201 63.9201 0 0 0-63.9201 63.9201v347.086142a63.9201 63.9201 0 0 0 63.9201 63.9201H959.440699a63.9201 63.9201 0 0 0 63.9201-63.9201V63.9201a63.9201 63.9201 0 0 0-63.9201-63.9201z m0 411.006242H609.797753V63.9201H959.440699z" fill="" p-id="48055"></path>
      <path d="M688.739076 141.583021h191.7603v191.7603h-191.7603zM939.625468 668.604245h82.456929v82.456929h-82.456929zM719.420724 668.604245h-82.456929v82.456929h82.456929v162.996254h82.456929V750.741573h-82.456929v-82.137328zM636.963795 941.223471h82.456929v82.456929h-82.456929zM818.496879 709.513109h82.456929v82.456928h-82.456929zM752.659176 614.59176h82.456929v82.456929h-82.456929zM815.620474 936.109863h82.456929v82.456929H815.620474zM939.625468 880.179775h82.456929v143.820225h-82.456929z" fill="" p-id="48056"></path>
    </g>
    <path d="M 1205 2524.5  C 1202.5025 2524.5  1200.5 2522.4975  1200.5 2520  L 1200.5 2330  C 1200.5 2327.5025  1202.5025 2325.5  1205 2325.5  L 1395 2325.5  C 1397.4975 2325.5  1399.5 2327.5025  1399.5 2330  L 1399.5 2520  C 1399.5 2522.4975  1397.4975 2524.5  1395 2524.5  L 1205 2524.5  Z " stroke-width="1" stroke="#000000" fill="none" />
  </g>
</svg>