<svg t="1744384141658" class="icon" viewBox="0 0 1024 1024" version="1.1" xmlns="http://www.w3.org/2000/svg" p-id="52363" width="200" height="200"><path d="M514.54 512.15m-447.5 0a447.5 447.5 0 1 0 895 0 447.5 447.5 0 1 0-895 0Z" fill="#48A3FF" p-id="52364"></path><path d="M720.01 523.7L514.54 638.16 309.07 523.7l0.95-1.72 204.52-342.64 204.32 342.45z" fill="#FFFFFF" p-id="52365"></path><path d="M719.82 561.66l-0.96 1.34-204.32 281.97-204.52-282.16-0.76-1.15 0.76 0.57 204.52 121.53 204.32-121.53z" fill="#FFFFFF" p-id="52366"></path><path d="M720.01 523.7L514.54 638.16 309.07 523.7l0.95-1.72 204.52-92.72 204.32 92.53z" fill="#FFFFFF" p-id="52367"></path><path d="M720.01 523.7L514.54 638.16V179.34l204.32 342.45z" fill="#FFFFFF" opacity=".8" p-id="52368"></path><path d="M719.82 561.66l-0.96 1.34-204.32 281.97V683.76l204.32-121.53z" fill="#FFFFFF" p-id="52369"></path></svg>