<svg t="1744384949372" class="icon" viewBox="0 0 1024 1024" version="1.1" xmlns="http://www.w3.org/2000/svg" p-id="55877" width="200" height="200"><path d="M0 0h1024v1024H0z" fill="#8a8a8a" opacity=".01" p-id="55878"></path><path d="M570.2656 44.1344A34.133333 34.133333 0 0 0 512 68.266667v136.533333H238.933333a34.133333 34.133333 0 0 0-34.133333 34.133333v204.8a34.133333 34.133333 0 0 0 34.133333 34.133334h682.666667a34.133333 34.133333 0 0 0 24.132267-58.2656l-375.466667-375.466667zM580.266667 238.933333V150.664533L839.202133 409.6H273.066667V273.066667h273.066666a34.133333 34.133333 0 0 0 34.133334-34.133334z m-126.532267 740.932267A34.133333 34.133333 0 0 0 512 955.733333v-136.533333h273.066667a34.133333 34.133333 0 0 0 34.133333-34.133333v-204.8a34.133333 34.133333 0 0 0-34.133333-34.133334H102.4a34.133333 34.133333 0 0 0-24.132267 58.2656l375.466667 375.466667zM443.733333 785.066667v88.2688L184.797867 614.4H750.933333v136.533333h-273.066666a34.133333 34.133333 0 0 0-34.133334 34.133334z" fill="#8a8a8a" p-id="55879"></path></svg>