<?xml version="1.0" encoding="utf-8"?>
<svg version="1.1" xmlns:xlink="http://www.w3.org/1999/xlink" width="45px" height="45px" xmlns="http://www.w3.org/2000/svg">
  <defs>
    <path d="M 0 0  L 1024 0  L 1024 1024  L 0 1024  Z " fill-rule="evenodd" fill="black" id="path50" />
    <clipPath id="clip51">
      <use xlink:href="#path50" />
    </clipPath>
    <filter x="-50.00%" y="-50.00%" width="200.00%" height="200.00%" filterUnits="objectBoundingBox" id="filter52">
      <feColorMatrix type="matrix" values="1 0 0 0 0  0 1 0 0 0  0 0 1 0 0  0 0 0 1 0  " in="SourceGraphic" />
    </filter>
  </defs>
  <g transform="matrix(1 0 0 1 -193 -340 )">
    <g transform="matrix(0.0439453125 0 0 0.0439453125 193 340 )" clip-path="url(#clip51)" filter="url(#filter52)">
      <path d="M648.533333 298.097778c-46.648889 0-84.195556 37.546667-84.195555 84.195555 0 46.648889 37.546667 84.195556 84.195555 84.195556 46.648889 0 84.195556-37.546667 84.195556-84.195556 0-46.648889-38.684444-84.195556-84.195556-84.195555z m36.408889 92.16c6.826667 0 11.377778 4.551111 11.377778 11.377778s-4.551111 11.377778-11.377778 11.377777H659.911111v28.444445c0 6.826667-4.551111 11.377778-11.377778 11.377778s-11.377778-4.551111-11.377777-11.377778v-28.444445h-25.031112c-6.826667 0-11.377778-4.551111-11.377777-11.377777s4.551111-11.377778 11.377777-11.377778H637.155556v-10.24h-25.031112c-6.826667 0-11.377778-4.551111-11.377777-11.377778s4.551111-11.377778 11.377777-11.377778h9.102223l-12.515556-12.515555c-4.551111-4.551111-4.551111-11.377778 0-15.928889s11.377778-4.551111 15.928889 0L648.533333 352.711111l23.893334-23.893333c4.551111-4.551111 11.377778-4.551111 15.928889 0s4.551111 11.377778 0 15.928889l-12.515556 12.515555h9.102222c6.826667 0 11.377778 4.551111 11.377778 11.377778s-4.551111 11.377778-11.377778 11.377778H659.911111v10.24h25.031111z" fill="#68A7F1" p-id="94520"></path>
      <path d="M713.386667 56.888889h-375.466667C184.32 56.888889 59.164444 182.044444 59.164444 335.644444v375.466667C59.164444 864.711111 184.32 989.866667 337.92 989.866667h375.466667c153.6 0 278.755556-125.155556 278.755555-278.755556v-375.466667C992.142222 182.044444 866.986667 56.888889 713.386667 56.888889zM559.786667 567.751111H425.528889c-9.102222 0-17.066667-7.964444-17.066667-17.066667s7.964444-17.066667 17.066667-17.066666h133.12c9.102222 0 17.066667 7.964444 17.066667 17.066666s-6.826667 17.066667-15.928889 17.066667z m72.817777 45.511111c9.102222 0 17.066667 7.964444 17.066667 17.066667s-7.964444 17.066667-17.066667 17.066667H425.528889c-9.102222 0-17.066667-7.964444-17.066667-17.066667s7.964444-17.066667 17.066667-17.066667h207.075555z m-108.088888-143.36c0 9.102222-7.964444 17.066667-17.066667 17.066667h-80.782222c-9.102222 0-17.066667-7.964444-17.066667-17.066667s7.964444-17.066667 17.066667-17.066666h80.782222c9.102222 0 17.066667 7.964444 17.066667 17.066666zM357.262222 780.515556c-2.275556 6.826667-9.102222 10.24-15.928889 10.24-2.275556 0-4.551111 0-6.826666-1.137778-26.168889-11.377778-42.097778-36.408889-42.097778-63.715556V386.844444c0-9.102222 7.964444-17.066667 17.066667-17.066666s17.066667 7.964444 17.066666 17.066666v339.057778c0 13.653333 7.964444 27.306667 21.617778 31.857778 9.102222 3.413333 12.515556 13.653333 9.102222 22.755556z m385.706667-91.022223c0 38.684444-30.72 69.404444-69.404445 69.404445H419.84c-38.684444 0-69.404444-30.72-69.404444-69.404445V381.155556c0-38.684444 30.72-69.404444 69.404444-69.404445h76.231111c9.102222 0 17.066667 7.964444 17.066667 17.066667s-7.964444 17.066667-17.066667 17.066666h-76.231111c-19.342222 0-35.271111 15.928889-35.271111 35.271112v308.337777c0 19.342222 15.928889 35.271111 35.271111 35.271111h254.862222c19.342222 0 35.271111-15.928889 35.271111-35.271111V521.102222c0-9.102222 7.964444-17.066667 17.066667-17.066666s17.066667 7.964444 17.066667 17.066666v168.391111zM648.533333 499.484444c-64.853333 0-118.328889-53.475556-118.328889-118.328888S583.68 262.826667 648.533333 262.826667s118.328889 53.475556 118.328889 118.328889c0 65.991111-53.475556 118.328889-118.328889 118.328888z" fill="#68A7F1" p-id="94521"></path>
    </g>
    <path d="M 215.5 384.5  C 203.29 384.5  193.5 374.71  193.5 362.5  L 193.5 362.5  C 193.5 350.29  203.29 340.5  215.5 340.5  L 215.5 340.5  C 227.71 340.5  237.5 350.29  237.5 362.5  L 237.5 362.5  C 237.5 374.71  227.71 384.5  215.5 384.5  L 215.5 384.5  Z " stroke-width="1" stroke="#81d3f8" fill="none" />
  </g>
</svg>