<svg t="1744673021657" class="icon" viewBox="0 0 1278 1024" version="1.1" xmlns="http://www.w3.org/2000/svg" p-id="101637" width="200" height="200"><path d="M1274.489237 989.933464l-116.227006-236.46184V118.23092c0-12.023483-10.019569-24.046967-22.043053-24.046967H412.806262C370.72407 38.074364 304.594912 0 228.446184 0 102.199609 0 0 102.199609 0 228.446184c0 100.195695 64.125245 184.360078 154.30137 216.422701v308.602739L36.07045 989.933464c-6.011742 12.023483 0 26.050881 10.01957 30.058708 2.003914 2.003914 6.011742 4.007828 10.019569 4.007828h1198.340509c12.023483 0 24.046967-10.019569 24.046967-22.043053 0-4.007828-2.003914-8.015656-4.007828-12.023483z m-1224.39139-761.48728c0-98.191781 80.156556-178.348337 178.348337-178.348337 46.09002 0 86.168297 16.031311 118.23092 44.086106 14.027397 14.027397 28.054795 28.054795 38.074364 46.09002 14.027397 26.050881 24.046967 56.109589 24.046966 88.172211 0 98.191781-80.156556 178.348337-178.348336 178.348337-10.019569 0-20.039139-2.003914-30.058709-2.003914-16.031311-2.003914-32.062622-8.015656-46.090019-14.027398-62.121331-28.054795-104.203523-90.176125-104.203523-162.317025z m178.348337 228.446184c126.246575 0 228.446184-102.199609 228.446184-228.446184 0-32.062622-6.011742-60.117417-18.035225-88.172211h671.311154v593.158512H200.391389V454.888454c10.019569 2.003914 18.035225 2.003914 28.054795 2.003914z m268.524462 521.017612l20.039139-40.078277h276.540117l20.039139 40.078277H496.970646z m366.716242 0l-36.07045-74.144814c-4.007828-8.015656-12.023483-12.023483-20.039139-14.027397H500.978474c-8.015656 0-16.031311 6.011742-20.039139 12.023483l-38.074364 74.144815H92.180039L190.37182 781.526419h929.816047l96.187867 196.383561H863.686888z" fill="#bfbfbf" p-id="101638"></path><path d="M563.099804 288.563601h176.344423v46.090019h-176.344423zM478.935421 418.818004h260.508806v46.090019h-260.508806zM274.536204 549.072407h474.927592v46.09002H274.536204zM925.808219 274.536204h-132.258317v316.618395h132.258317V274.536204z m-48.093933 268.524461H841.643836V320.626223h36.07045v222.434442zM961.878669 366.716243h102.199609v222.434442H961.878669zM218.426614 358.700587h18.035226v-26.050881c18.035225-2.003914 32.062622-6.011742 44.086105-12.023483 16.031311-10.019569 24.046967-26.050881 24.046967-46.090019 0-20.039139-10.019569-36.07045-30.058708-48.093934-2.003914-2.003914-14.027397-6.011742-36.070451-14.027397V150.293542c8.015656 0 12.023483 2.003914 18.035225 6.011742 6.011742 4.007828 10.019569 12.023483 12.023484 24.046966H300.587084c-2.003914-20.039139-10.019569-36.07045-22.043053-46.090019-10.019569-8.015656-24.046967-12.023483-40.078278-14.027397V98.191781H220.430528v24.046967c-16.031311 2.003914-30.058708 6.011742-40.078278 14.027397-16.031311 8.015656-24.046967 22.043053-24.046966 42.082192 0 22.043053 10.019569 38.074364 30.058708 48.093933l32.062622 12.023483v66.129159c-8.015656-2.003914-16.031311-4.007828-20.039138-8.015656-6.011742-6.011742-10.019569-18.035225-12.023484-32.062622H154.30137c2.003914 24.046967 8.015656 40.078278 20.039139 52.101761 10.019569 10.019569 26.050881 16.031311 44.086105 16.031311v26.050881z m20.039139-114.223092c2.003914 0 2.003914 0 4.007828 2.003914 20.039139 6.011742 30.058708 16.031311 30.058709 30.058708 0 10.019569-4.007828 16.031311-12.023484 22.043053-6.011742 4.007828-12.023483 6.011742-20.039139 8.015656v-62.121331zM190.37182 178.348337c0-10.019569 4.007828-18.035225 12.023483-22.043053 4.007828-2.003914 10.019569-4.007828 18.035225-6.011742v56.109589c-20.039139-8.015656-30.058708-18.035225-30.058708-28.054794z" fill="#bfbfbf" p-id="101639"></path></svg>