<svg t="1737764653935" class="icon" viewBox="0 0 1024 1024" version="1.1" xmlns="http://www.w3.org/2000/svg" p-id="59660" width="200" height="200"><path d="M547.84 418.133333c-11.946667-5.12-25.6-8.533333-39.253333-8.533333-54.613333 0-100.693333 44.373333-100.693334 100.693333 0 54.613333 44.373333 100.693333 100.693334 100.693334s100.693333-44.373333 100.693333-100.693334c0-11.946667-1.706667-22.186667-5.12-32.426666l-78.506667 75.093333c-17.066667 15.36-42.666667 13.653333-58.026666-1.706667-15.36-17.066667-13.653333-42.666667 1.706666-58.026666l78.506667-75.093334z" fill="#8a8a8a" p-id="59661" data-spm-anchor-id="a313x.search_index.0.i81.705a3a81Q5at5C" class=""></path><path d="M822.613333 332.8l-102.4-23.893333-17.066666-100.693334-104.106667 97.28v100.693334l-112.64 102.4c-3.413333 3.413333-6.826667 8.533333-6.826667 13.653333 0 10.24 8.533333 18.773333 18.773334 18.773333 3.413333 0 5.12-1.706667 8.533333-1.706666l1.706667-1.706667 5.12-5.12 114.346666-105.813333h100.693334l93.866666-93.866667z m-110.933333 58.026667l-80.213333 3.413333 6.826666-69.973333 39.253334-39.253334 11.946666 58.026667 59.733334 10.24-37.546667 37.546667z" fill="#1296db" p-id="59662" data-spm-anchor-id="a313x.search_index.0.i82.705a3a81Q5at5C" class="selected"></path><path d="M633.173333 453.973333c6.826667 17.066667 11.946667 35.84 11.946667 54.613334 0 75.093333-61.44 136.533333-136.533333 136.533333s-136.533333-61.44-136.533334-136.533333 61.44-136.533333 136.533334-136.533334c22.186667 0 42.666667 5.12 59.733333 13.653334v-143.36c-18.773333-5.12-39.253333-6.826667-59.733333-6.826667-150.186667 0-273.066667 122.88-273.066667 273.066667s122.88 273.066667 273.066667 273.066666 273.066667-122.88 273.066666-273.066666c0-18.773333-1.706667-37.546667-5.12-54.613334h-143.36z" fill="#8a8a8a" p-id="59663" data-spm-anchor-id="a313x.search_index.0.i80.705a3a81Q5at5C" class=""></path><path d="M512 0C228.693333 0 0 228.693333 0 512s228.693333 512 512 512 512-228.693333 512-512S795.306667 0 512 0z m1.706667 1006.933333c-273.066667 0-494.933333-221.866667-494.933334-494.933333s221.866667-494.933333 494.933334-494.933333 494.933333 221.866667 494.933333 494.933333-221.866667 494.933333-494.933333 494.933333z" fill="#8a8a8a" p-id="59664" data-spm-anchor-id="a313x.search_index.0.i79.705a3a81Q5at5C" class=""></path></svg>