<svg t="1737431091349" class="icon" viewBox="0 0 1024 1024" version="1.1" xmlns="http://www.w3.org/2000/svg" p-id="53439" width="200" height="200"><path d="M1024 512c0 282.8-229.2 512-512 512S0 794.8 0 512 229.2 0 512 0s512 229.2 512 512" fill="#DCDCDC" p-id="53440"></path><path d="M736.96 856H287.04c-13.28 0-24-10.72-24-24V288c0-13.28 10.72-24 24-24h450c13.28 0 24 10.72 24 24v544a24.08 24.08 0 0 1-24.08 24z m-425.92-48h402V312H311.04v496z" fill="#8a8a8a" p-id="53441" data-spm-anchor-id="a313x.search_index.0.i59.705a3a81Q5at5C" class="selected"></path><path d="M452 680c-13.28 0-24-10.72-24-24V448c0-13.28 10.72-24 24-24s24 10.72 24 24v208c0 13.28-10.72 24-24 24zM572 680c-13.28 0-24-10.72-24-24V448c0-13.28 10.72-24 24-24s24 10.72 24 24v208c0 13.28-10.72 24-24 24zM212 264h600v48h-600z" fill="#8a8a8a" p-id="53442" data-spm-anchor-id="a313x.search_index.0.i60.705a3a81Q5at5C" class="selected"></path><path d="M632 312H392c-8.4 0-16.16-4.32-20.48-11.52-4.32-7.12-4.72-16-0.88-23.44l49.36-96c4.08-8 12.32-13.04 21.36-13.04h142.32c9.04 0 17.36 5.12 21.44 13.2l48.32 96c3.76 7.44 3.36 16.32-0.96 23.36-4.4 7.12-12.16 11.44-20.48 11.44z m-200.64-48h161.68l-24.16-48H456l-24.64 48z" fill="#8a8a8a" p-id="53443" data-spm-anchor-id="a313x.search_index.0.i61.705a3a81Q5at5C" class="selected"></path></svg>