<svg t="1744770096473" class="icon" viewBox="0 0 1044 1024" version="1.1" xmlns="http://www.w3.org/2000/svg" p-id="108447" width="200" height="200"><path d="M471.539411 486.252353L735.647071 0l29.425883 51.806132 0.93251 1.554184 31.083679 56.77952 39.994334 70.663564 80.921177-5.284226 64.654053-4.040878 61.027623-4.14449L780.200344 653.68977 516.092684 510.497622z" fill="#DBBD6A" p-id="108448"></path><path d="M686.120409 602.816149l231.780633-427.296975 64.654053-4.040878L734.610948 628.926439z m-168.991602-91.800466l248.669432-457.551755 31.083679 56.572296-231.262572 427.504199z" fill="#EFC58E" p-id="108449"></path><path d="M308.453708 0L207.224527 181.114237l-207.224527-13.469595 264.004047 486.252353L572.457756 486.977638z" fill="#F3A333" p-id="108450"></path><path d="M0.518061 167.333806l59.991501 4.040878H62.167358l64.654053 4.040878 80.921177 5.284226 39.683497-70.663564 31.808965-56.779521L309.075382 0l263.589598 486.252353L308.764545 629.548113l-44.553273 24.141657z" fill="#DBBD6A" p-id="108451"></path><path d="M0.518061 167.333806l59.991501 4.040878 248.669432 458.173429-44.553273 24.141657z" fill="#CCA62F" p-id="108452"></path><path d="M358.083983 602.816149L126.614186 175.519174 62.167358 171.478296 309.593443 628.926439z m168.991601-91.800466L279.027826 53.463928l-31.808965 56.572296 231.573409 427.504199z" fill="#EFC58E" p-id="108453"></path><path d="M471.539411 486.252353L735.647071 0l29.425883 51.806132-248.669433 458.69149z" fill="#CCA62F" p-id="108454"></path><path d="M902.25559 643.742993a379.94617 379.94617 0 1 0-379.94617 379.842558 379.842558 379.842558 0 0 0 379.94617-379.842558z" fill="#FAD672" p-id="108455"></path><path d="M142.570475 643.742993a379.842558 379.842558 0 0 1 379.94617-379.842558 371.553577 371.553577 0 0 1 37.300415 1.865021 379.842558 379.842558 0 0 0 0 756.369523 371.553577 371.553577 0 0 1-37.300415 1.865021 379.842558 379.842558 0 0 1-379.94617-380.257007z" fill="#FFBC5A" p-id="108456"></path><path d="M522.30942 960.796519a316.949914 316.949914 0 1 0-316.742689-317.053526 316.846302 316.846302 0 0 0 316.742689 317.053526z m0-565.308509a248.669432 248.669432 0 1 1-248.669432 248.669432 248.669432 248.669432 0 0 1 248.669432-248.669432z" fill="#FDF17F" p-id="108457"></path><path d="M509.565112 549.144996l-76.983912 14.816554v-47.661641l93.251037-18.857432h41.444906v312.598199h-57.712031z" fill="#1296db" p-id="108458" data-spm-anchor-id="a313x.search_index.0.i148.45b03a815OtvRk" class="selected"></path></svg>