<?xml version="1.0" encoding="utf-8"?>
<svg version="1.1" xmlns:xlink="http://www.w3.org/1999/xlink" width="45px" height="45px" xmlns="http://www.w3.org/2000/svg">
  <defs>
    <path d="M 0 0  L 1024 0  L 1024 1024  L 0 1024  Z " fill-rule="evenodd" fill="black" id="path63" />
    <clipPath id="clip64">
      <use xlink:href="#path63" />
    </clipPath>
    <filter x="-50.00%" y="-50.00%" width="200.00%" height="200.00%" filterUnits="objectBoundingBox" id="filter65">
      <feColorMatrix type="matrix" values="1 0 0 0 0  0 1 0 0 0  0 0 1 0 0  0 0 0 1 0  " in="SourceGraphic" />
    </filter>
  </defs>
  <g transform="matrix(1 0 0 1 -153 -2900 )">
    <g transform="matrix(0.0439453125 0 0 0.0439453125 153 2900 )" clip-path="url(#clip64)" filter="url(#filter65)">
      <path d="M452.489354 16.078433L112.702765 212.207604c-37.114166 21.43663-59.830595 60.790445-59.830596 103.663705v392.258342c0 42.553311 22.716429 82.227075 59.830596 103.663705l339.46664 196.129171c37.114166 21.43663 82.547025 21.43663 119.66119 0l339.46664-196.129171c37.114166-21.43663 59.830595-60.790445 59.830596-103.663705V315.871309c0-42.553311-22.716429-82.227075-59.830596-103.663705L571.830595 16.078433a118.765332 118.765332 0 0 0-119.341241 0z" fill="#f4ea2a" p-id="109696" data-spm-anchor-id="a313x.search_index.0.i151.45b03a815OtvRk" class="selected"></path>
      <path d="M379.860771 265.639205h61.110394v199.968567c0 153.25591-22.39648 210.526908-109.74275 292.114084l-55.351299-42.873261c86.706371-72.948533 104.303605-109.74275 104.303604-244.441577l-0.319949-204.767813z" fill="#d81e06" p-id="109697" data-spm-anchor-id="a313x.search_index.0.i152.45b03a815OtvRk" class=""></path>
      <path d="M283.555909 300.193773h57.270997V620.783381H283.555909zM628.781643 342.747084v45.752809h102.383907v231.963538c0 49.912154-9.918441 55.991199-56.631098 62.070243l-23.996228 2.559598-8.318693-65.269741 13.117938-1.599748c15.357586-1.599749 17.597234-5.119195 17.597234-22.39648v-142.05767h-43.83311v304.912072h-59.830595v-304.912072h-42.233362v229.403941h-59.190696v-294.353732h101.744007v-45.752808h-105.903353v-63.989941h285.715089v63.669991h-120.62104z" fill="#d81e06" p-id="109698" data-spm-anchor-id="a313x.search_index.0.i153.45b03a815OtvRk" class=""></path>
    </g>
  </g>
</svg>