<?xml version="1.0" encoding="utf-8"?>
<svg version="1.1" xmlns:xlink="http://www.w3.org/1999/xlink" width="110px" height="35px" xmlns="http://www.w3.org/2000/svg">
  <g transform="matrix(1 0 0 1 -1 -3575 )">
    <path d="M 97.1081934591074 3575.5  C 97.1081934591074 3575.5  100.221206493992 3575.99525207373  100.221206493992 3575.99525207373  C 100.221206493992 3575.99525207373  110.449500983511 3592.5  110.449500983511 3592.5  C 110.449500983511 3592.5  100.221206493992 3609.00474792627  100.221206493992 3609.00474792627  C 100.221206493992 3609.00474792627  97.1081934591074 3609.5  97.1081934591074 3609.5  C 97.1081934591074 3609.5  1.5 3609.5  1.5 3609.5  C 1.5 3609.5  1.5 3575.5  1.5 3575.5  C 1.5 3575.5  97.1081934591074 3575.5  97.1081934591074 3575.5  Z " fill-rule="nonzero" fill="#0297d7" stroke="none" />
    <path d="M 97.1081934591074 3575.5  C 97.1081934591074 3575.5  100.221206493992 3575.99525207373  100.221206493992 3575.99525207373  C 100.221206493992 3575.99525207373  110.449500983511 3592.5  110.449500983511 3592.5  C 110.449500983511 3592.5  100.221206493992 3609.00474792627  100.221206493992 3609.00474792627  C 100.221206493992 3609.00474792627  97.1081934591074 3609.5  97.1081934591074 3609.5  C 97.1081934591074 3609.5  1.5 3609.5  1.5 3609.5  C 1.5 3609.5  1.5 3575.5  1.5 3575.5  C 1.5 3575.5  97.1081934591074 3575.5  97.1081934591074 3575.5  Z " stroke-width="1" stroke="#d7d7d7" fill="none" />
  </g>
</svg>