<svg t="1744789698620" class="icon" viewBox="0 0 1024 1024" version="1.1" xmlns="http://www.w3.org/2000/svg" p-id="112335" width="200" height="200"><path d="M547.413333 249.301333c0 6.784 0 22.357333 24.234667 28.672V220.672c-24.234667 6.272-24.234667 21.888-24.234667 28.672z m74.24 84.010667v57.301333c24.234667-6.272 24.234667-21.888 24.234667-28.672s0-22.357333-24.234667-28.672z m0 0" fill="#f4ea2a" p-id="112336"></path><path d="M596.48 85.333333a221.013333 221.013333 0 1 0 221.013333 221.013334A221.269333 221.269333 0 0 0 596.48 85.333333z m67.285333 212.906667a80.512 80.512 0 0 1 0 130.517333 103.552 103.552 0 0 1-41.941333 15.36v24.917334h-50.688v-24.917334a103.594667 103.594667 0 0 1-41.941333-15.36 74.666667 74.666667 0 0 1-33.322667-65.28h50.688c0 6.869333 0 22.698667 24.576 29.056V329.813333a103.296 103.296 0 0 1-41.941333-15.402666 80.554667 80.554667 0 0 1 0-130.517334 103.893333 103.893333 0 0 1 41.941333-15.402666v-24.917334h50.688v24.917334a103.850667 103.850667 0 0 1 41.941333 15.402666 74.666667 74.666667 0 0 1 33.322667 65.237334H646.4c0-6.869333 0-22.698667-24.576-29.056v62.72a102.954667 102.954667 0 0 1 41.941333 15.402666zM85.333333 594.816V938.666667h125.013334v-343.850667z m833.621334 80.853333l-210.944 57.984-179.712-43.861333 12.032-49.237333 166.912 40.704h0.384v-65.109334l-233.386667-58.453333-213.333333 33.066667v276.992l123.221333-13.824 238.933333 67.029333 314.752-173.482667z m0 0" fill="#f4ea2a" p-id="112337"></path></svg>