<svg t="1744789805901" class="icon" viewBox="0 0 1156 1024" version="1.1" xmlns="http://www.w3.org/2000/svg" p-id="113692" width="200" height="200"><path d="M379.870968 379.870968m-379.870968 0a379.870968 379.870968 0 1 0 759.741935 0 379.870968 379.870968 0 1 0-759.741935 0Z" fill="#8CF6FB" p-id="113693"></path><path d="M1057.032258 1024H99.096774c-54.503226 0-99.096774-44.593548-99.096774-99.096774V99.096774c0-54.503226 44.593548-99.096774 99.096774-99.096774h957.935484c54.503226 0 99.096774 44.593548 99.096774 99.096774v825.806452c0 54.503226-44.593548 99.096774-99.096774 99.096774z m16.516129-627.612903H693.677419c-64.412903 0-115.612903 51.2-115.612903 115.612903s51.2 115.612903 115.612903 115.612903h379.870968V396.387097z m0 313.806451H693.677419c-109.006452 0-198.193548-89.187097-198.193548-198.193548s89.187097-198.193548 198.193548-198.193548h379.870968V99.096774c0-9.909677-6.606452-16.516129-16.516129-16.516129H99.096774c-9.909677 0-16.516129 6.606452-16.516129 16.516129v825.806452c0 9.909677 6.606452 16.516129 16.516129 16.516129h957.935484c9.909677 0 16.516129-6.606452 16.516129-16.516129V710.193548z" fill="#3C2DCB" p-id="113694"></path><path d="M627.612903 512c0-36.335484 29.729032-66.064516 66.064516-66.064516s66.064516 29.729032 66.064516 66.064516-29.729032 66.064516-66.064516 66.064516-66.064516-29.729032-66.064516-66.064516z" fill="#D098FF" p-id="113695"></path></svg>