<svg t="1744791014875" class="icon" viewBox="0 0 1024 1024" version="1.1" xmlns="http://www.w3.org/2000/svg" p-id="116503" width="200" height="200"><path d="M964.637478 550.609197a34.185776 34.185776 0 0 0-48.005558 5.091498l-98.193186 120.013894h-29.821634L690.423915 555.700695a34.185776 34.185776 0 1 0-53.097056 42.914059l63.280053 77.099835h-37.095204a34.185776 34.185776 0 0 0 0 68.371552h107.648826v72.735693H663.511708a34.185776 34.185776 0 0 0 0 67.644194h107.648826v100.375257a34.185776 34.185776 0 1 0 67.644195 0v-102.557327h102.557327a34.185776 34.185776 0 0 0 0-67.644195h-102.557327v-72.735693h102.557327a34.185776 34.185776 0 0 0 0-68.371552h-32.003705l62.552696-77.099834a33.458419 33.458419 0 0 0-4.364142-48.005558z m0 0" p-id="116504" fill="#1296db"></path><path d="M504.947897 786.272843a269.122065 269.122065 0 0 1 0-34.185776H260.555968a34.185776 34.185776 0 0 1-34.185776-34.185776 33.458419 33.458419 0 0 1 34.185776-33.458419h263.303209a309.126696 309.126696 0 0 1 290.942773-208.024082 312.76348 312.76348 0 0 1 90.919616 13.819782V92.37433a91.646973 91.646973 0 0 0-90.192259-92.37433H178.364635A90.919616 90.919616 0 0 0 87.445019 92.37433v111.285611H53.259243a33.458419 33.458419 0 0 0-34.185776 33.458419 34.185776 34.185776 0 0 0 34.185776 34.185775h34.185776v205.114655H53.259243a34.185776 34.185776 0 0 0 0 68.371551h34.185776v205.842012H53.259243a34.185776 34.185776 0 1 0 0 67.644195h34.185776v106.921469a90.919616 90.919616 0 0 0 90.919616 93.101687h430.595303a308.399339 308.399339 0 0 1-104.012041-232.026861zM260.555968 272.031492h407.319882a34.185776 34.185776 0 1 1 0 68.371552h-407.319882a34.185776 34.185776 0 0 1 0-68.371552z m0 204.387298h271.304136a34.185776 34.185776 0 0 1 0 68.371551H260.555968a34.185776 34.185776 0 0 1 0-68.371551z m0 0" p-id="116505" fill="#1296db"></path></svg>