<?xml version="1.0" encoding="utf-8"?>
<svg version="1.1" xmlns:xlink="http://www.w3.org/1999/xlink" width="35px" height="35px" xmlns="http://www.w3.org/2000/svg">
  <defs>
    <path d="M 0 0  L 1024 0  L 1024 1024  L 0 1024  Z " fill-rule="evenodd" fill="black" id="path70" />
    <clipPath id="clip71">
      <use xlink:href="#path70" />
    </clipPath>
    <filter x="-50.00%" y="-50.00%" width="200.00%" height="200.00%" filterUnits="objectBoundingBox" id="filter72">
      <feColorMatrix type="matrix" values="1 0 0 0 0  0 1 0 0 0  0 0 1 0 0  0 0 0 1 0  " in="SourceGraphic" />
    </filter>
  </defs>
  <g transform="matrix(1 0 0 1 -159 -762 )">
    <g transform="matrix(0.0341796875 0 0 0.0341796875 159 762 )" clip-path="url(#clip71)" filter="url(#filter72)">
      <path d="M563 893H188.7c-19 0-36.1-10.1-45.8-26.9-10-17.5-9.9-39.2 0.3-56.5l202.9-348c7.1-12.2 22.7-16.3 34.9-9.2 12.2 7.1 16.3 22.7 9.2 34.9l-202.9 348c-1.5 2.5-0.4 4.7 0 5.4 0.5 0.8 1 1.3 1.5 1.3H563c0.6 0 2.2-1.4 2.2-3.9V199.4c0-2.6-0.9-3.3-1.2-3.5-0.6-0.4-1.2-0.5-1.4-0.5-0.1 0-0.5 0.4-1 1.3L461.7 367c-7.1 12.2-22.8 16.2-34.9 9.1-12.2-7.1-16.2-22.8-9.1-34.9l99.8-170.3c12.3-21 36-31 59-24.7 23.8 6.4 39.7 27.8 39.7 53.2V838c0 30.3-23.8 55-53.2 55z" fill="#6893FF" p-id="100247"></path>
      <path d="M398.9 431.3c-4.6 0-9.2-1.2-13.4-3.8-12-7.4-15.7-23.2-8.2-35.1l3.4-5.5c7.4-12 23.2-15.7 35.1-8.2 12 7.4 15.7 23.2 8.2 35.1l-3.4 5.5c-4.8 7.7-13.2 12-21.7 12z" fill="#6893FF" p-id="100248"></path>
      <path d="M504.6 762H324.2c-9.1 0-17.6-4.9-22.1-12.8-4.6-7.9-4.5-17.7 0.1-25.6l97.2-167c7.1-12.2 22.7-16.3 34.9-9.2 12.2 7.1 16.3 22.7 9.2 34.9l-74.8 128.6h110.5V521c-7.1 12.1-22.7 16.1-34.8 9.1-12.2-7.1-16.3-22.7-9.2-34.9l47.5-81.7c5.8-10 17.6-14.9 28.7-11.8 11.1 3 18.9 13.1 18.9 24.7v310.1c-0.2 14-11.6 25.5-25.7 25.5z" fill="#FF6E90" p-id="100249"></path>
      <path d="M775.2 319.5h-90.3c-14.1 0-25.5-11.4-25.5-25.5s11.4-25.5 25.5-25.5h90.3c14.1 0 25.5 11.4 25.5 25.5 0 14-11.4 25.5-25.5 25.5zM737.4 457.5h-52.6c-14.1 0-25.5-11.4-25.5-25.5s11.4-25.5 25.5-25.5h52.6c14.1 0 25.5 11.4 25.5 25.5 0.1 14-11.4 25.5-25.5 25.5zM737.4 733.5h-52.6c-14.1 0-25.5-11.4-25.5-25.5s11.4-25.5 25.5-25.5h52.6c14.1 0 25.5 11.4 25.5 25.5s-11.4 25.5-25.5 25.5zM775.2 595.5h-90.3c-14.1 0-25.5-11.4-25.5-25.5s11.4-25.5 25.5-25.5h90.3c14.1 0 25.5 11.4 25.5 25.5s-11.4 25.5-25.5 25.5z" fill="#39DB8F" p-id="100250"></path>
      <path d="M837.5 893H702.9c-28.2 0-51.1-23.6-51.1-52.7V183.7c0-29.1 22.9-52.7 51.1-52.7h4.8c14.1 0 25.5 11.4 25.5 25.5S721.8 182 707.7 182h-4.5c0.1 0.1-0.2 0.6-0.2 1.6v656.6c0 1.3 0.6 1.8 0.6 1.8l133.7-0.2c-0.1-0.1 0.2-0.6 0.2-1.6V183.7c0-1.3-0.6-1.8-0.6-1.8l-66.9 0.2c-14.1 0-25.5-11.4-25.5-25.5s11.4-25.5 25.5-25.5h67.6c28.2 0 51.1 23.6 51.1 52.7v656.6c-0.1 29-23 52.6-51.2 52.6z" fill="#6893FF" p-id="100251"></path>
    </g>
    <path d="M 176.5 796.5  C 167.065 796.5  159.5 788.935  159.5 779.5  L 159.5 779.5  C 159.5 770.065  167.065 762.5  176.5 762.5  L 176.5 762.5  C 185.935 762.5  193.5 770.065  193.5 779.5  L 193.5 779.5  C 193.5 788.935  185.935 796.5  176.5 796.5  L 176.5 796.5  Z " stroke-width="1" stroke="#81d3f8" fill="none" />
  </g>
</svg>