<svg t="1744791214510" class="icon" viewBox="0 0 1024 1024" version="1.1" xmlns="http://www.w3.org/2000/svg" p-id="119642" width="200" height="200"><path d="M915.36 622.72a208 208 0 0 0-310.784 266.56l-12.992 11.2a128.128 128.128 0 0 1-158.272 0.32L76.768 595.328a48.768 48.768 0 0 1 4.192-69.888 51.168 51.168 0 0 1 32.768-12.48h105.088V175.808c0-45.888 35.264-79.776 82.048-79.776H723.52c44-1.248 80.704 32.672 81.952 75.744 0.064 1.344 0.064 2.688 0 4.032V512.96h106.336c27.968 1.536 49.536 24.864 48.128 52.288a49.088 49.088 0 0 1-11.648 29.248l-32.96 28.256z" fill="#1296db" p-id="119643" data-spm-anchor-id="a313x.search_index.0.i169.45b03a815OtvRk" class="selected"></path><path d="M480 416h-96a32 32 0 1 1 0-64h50.752l-73.376-73.376a32 32 0 1 1 45.248-45.248L512 338.752l105.376-105.376a32 32 0 0 1 45.248 45.248L589.248 352H640a32 32 0 0 1 0 64h-96v32h64a32 32 0 0 1 0 64h-64v32a32 32 0 0 1-64 0v-32h-64a32 32 0 0 1 0-64h64v-32z" fill="#FFFFFF" p-id="119644"></path><path d="M784 960a176 176 0 1 1 0-352 176 176 0 0 1 0 352z" fill="#1296db" p-id="119645" data-spm-anchor-id="a313x.search_index.0.i170.45b03a815OtvRk" class="selected"></path><path d="M772.096 817.856l-56.576-56.544a16 16 0 0 0-22.624 22.624l67.872 67.872a16 16 0 0 0 22.624 0l113.152-113.12a16 16 0 0 0-22.624-22.656l-101.824 101.824z" fill="#FFFFFF" p-id="119646"></path></svg>