<svg t="1734941567851" class="icon" viewBox="0 0 1024 1024" version="1.1" xmlns="http://www.w3.org/2000/svg" p-id="57909" width="200" height="200"><path d="M568.1 589.4c0-30.8-24.9-55.7-55.7-55.7h-2.3c-30.1 0-53.5 25.6-53.5 55.7 0 1.1 0 2.2 0.1 3.3 0 0.7 0.1 1.4 0.2 2.1v0.5c1.8 18.4 11.9 33.5 27.5 43.1v91.9c0 15.1 12.8 27.9 27.9 27.9 15.1 0 27.9-12.8 27.9-27.9v-91.9c15.7-9.5 25.8-24.6 27.5-43.1v-0.5c0.1-0.7 0.1-1.4 0.2-2.1 0.2-1.1 0.2-2.2 0.2-3.3z" p-id="57910" fill="#e6e6e6"></path><path d="M747.3 387.3h-9v-83.6C739 167.4 640.4 65 510.1 65c-128 0-225.9 102.4-225.9 238.7v83.6h-6.8C209 387.3 154 445.2 154 513v322.3C154 906 209.7 961 277.5 961h469.8c68.5 0 123.5-58 123.5-125.7V513c-1.5-70-57.2-125.7-123.5-125.7z m-426.9-85.1h2.3c0-117.5 79.1-200.3 187.5-200.3 110.7 0 189.7 85.1 189.7 200.3v83.6H322.8v-83.4h-2.4v-0.2z m512.8 533.1c0 48.9-38.4 89.6-85.1 89.6H277.5c-46.7 0-85.1-40.7-85.1-89.6V513c0-48.9 38.4-89.6 85.1-89.6h470.6c46.7 0 85.1 40.7 85.1 89.6v322.3z" p-id="57911" fill="#e6e6e6"></path></svg>