<svg t="1744199029518" class="icon" viewBox="0 0 1024 1024" version="1.1" xmlns="http://www.w3.org/2000/svg" p-id="20813" width="200" height="200"><path d="M854.152533 882.2784a102.4 102.4 0 0 1-102.365866 102.365867H291.908267a102.4 102.4 0 0 1-102.4-102.365867V141.7216a102.4 102.4 0 0 1 102.4-102.365867h459.8784a102.4 102.4 0 0 1 102.365866 102.365867v740.5568zM795.067733 141.7216c0-23.893333-19.3536-43.3152-43.281066-43.3152H291.908267c-23.927467 0-43.3152 19.387733-43.3152 43.3152v740.522667a43.349333 43.349333 0 0 0 43.3152 43.281066h459.8784c23.893333 0 43.281067-19.387733 43.281066-43.281066V141.7216z m0 0" fill="#cdcdcd" p-id="20814"></path><path d="M823.944533 792.644267H218.385067a14.779733 14.779733 0 1 1 0-29.5936h605.525333a14.813867 14.813867 0 0 1 0.034133 29.5936z m0 0M823.944533 201.8304H218.385067c-8.192 0-14.779733-6.587733-14.779734-14.779733s6.587733-14.779733 14.779734-14.779734h605.525333a14.779733 14.779733 0 1 1 0.034133 29.559467z m0 0M558.762667 855.415467a25.838933 25.838933 0 0 1-25.838934 25.838933h-7.406933a25.873067 25.873067 0 0 1-25.838933-25.838933v-7.406934c0-14.267733 11.605333-25.838933 25.838933-25.838933h7.406933c14.267733 0 25.838933 11.5712 25.838934 25.838933v7.406934z m0 0" fill="#cdcdcd" p-id="20815"></path></svg>