<svg t="1744487702749" class="icon" viewBox="0 0 1024 1024" version="1.1" xmlns="http://www.w3.org/2000/svg" p-id="71958" width="200" height="200"><path d="M512.752 948.368C306.24 948.368 160 803.632 160 604.352c0-105.872 62.72-219.92 65.472-224.592a27.744 27.744 0 0 1 27.424-13.968c11.12 1.472 20 9.584 23.072 20.336 0.208 0.592 17.168 64.704 39.424 100.192 14.928 23.952 30.208 40.752 47.36 52.544-11.616-50.72-20.432-127.12-6.016-205.344 39.36-214.832 206.752-266.384 213.904-268.48a27.488 27.488 0 0 1 34.4 31.904c-0.16 1.472-27.92 152.032 30.672 280.32 5.344 11.68 12.72 25.12 20.704 38.784a364.8 364.8 0 0 1 11.36-57.632c21.6-76.048 77.184-102.064 79.584-103.056a27.344 27.344 0 0 1 28.08 3.456 27.68 27.68 0 0 1 10.064 26.832c-0.304 1.92-8.112 53.728 35.6 127.12 39.456 66.256 50.704 109.232 50.704 191.76-0.192 199.2-150.976 343.84-359.056 343.84zM247.888 474.64a352.272 352.272 0 0 0-24.288 127.136c0 162.272 119.616 280 289.264 280 170.976 0 295.04-117.728 295.04-280.048 0-70.16-8.592-102.544-41.712-158.368-22.112-37.216-33.168-70.672-38.176-97.392a124.656 124.656 0 0 0-13.712 31.808c-16.16 57.12-12 124.16-12 124.912a27.008 27.008 0 0 1-17.696 27.008c-11.184 4.048-23.68 0.032-30.432-9.76-2.096-2.8-49.232-70.4-70.016-116.08-43.104-94.368-42.528-196.544-38.176-255.36-43.696 25.728-110.944 83.312-132.64 200.352-21.008 114.048 19.808 233.248 20.224 234.352a27.152 27.152 0 0 1-4.832 27.408 26.16 26.16 0 0 1-26.16 8.4c-3.248-0.8-83.424-20.448-131.744-97.6a325.696 325.696 0 0 1-22.944-46.768z" fill="#bfbfbf" p-id="71959"></path></svg>