<svg t="1744487891829" class="icon" viewBox="0 0 1024 1024" version="1.1" xmlns="http://www.w3.org/2000/svg" p-id="74546" width="200" height="200"><path d="M907.636 795.927C795.927 879.71 488.727 1024 488.727 1024S228.073 879.71 116.364 795.927c-27.928-23.272-46.546-55.854-46.546-93.09V121.017C69.818 55.855 125.673 0 190.836 0h646.982c65.164 0 121.018 55.855 121.018 121.018v577.164c-4.654 41.89-23.272 74.473-51.2 97.745z m0-674.909c0-41.89-32.581-74.473-74.472-74.473H190.836c-41.89 0-74.472 32.582-74.472 74.473v577.164c0 23.273 9.309 41.89 27.927 55.854 88.436 69.819 283.927 176.873 344.436 214.11 69.818-32.582 297.891-144.291 386.328-214.11 18.618-13.963 27.927-37.236 27.927-55.854V121.018zM642.327 446.836s9.31 65.164 13.964 107.055c0 18.618-13.964 27.927-27.927 27.927-4.655 0-9.31 0-13.964-4.654-37.236-18.619-88.436-41.891-102.4-51.2-13.964 4.654-65.164 32.581-102.4 51.2-4.655 0-9.31 4.654-13.964 4.654-13.963 0-27.927-13.963-27.927-27.927 4.655-41.891 13.964-107.055 13.964-107.055s-51.2-55.854-79.128-93.09c-4.654-13.964 0-32.582 23.273-37.237 41.891-9.309 107.055-23.273 107.055-23.273s32.582-60.509 55.854-97.745c13.964-27.927 18.618-32.582 23.273-32.582s9.31 0 23.273 32.582c23.272 37.236 60.509 97.745 60.509 97.745s65.163 13.964 107.054 18.619c18.619 4.654 27.928 27.927 18.619 37.236-32.582 41.89-79.128 97.745-79.128 97.745z m-65.163-102.4c-9.31 0-18.619-9.309-23.273-18.618 0 0-18.618-41.89-41.891-79.127-23.273 37.236-41.89 79.127-41.89 79.127-9.31 9.31-18.62 18.618-27.928 18.618 0 0-32.582 4.655-74.473 9.31 27.927 32.581 55.855 65.163 60.51 65.163 9.308 9.31 9.308 18.618 9.308 32.582 0 0-4.654 27.927-18.618 74.473l74.473-37.237c4.654-4.654 9.309-4.654 13.963-4.654 4.655 0 9.31 4.654 13.964 4.654 13.964 4.655 74.473 41.891 74.473 41.891l-13.964-74.473c0-9.309 0-23.272 9.31-27.927 0 0 37.236-27.927 65.163-60.509-37.236-18.618-79.127-23.273-79.127-23.273z m-204.8 283.928h186.181c13.964 0 23.273 9.309 23.273 23.272s-9.309 23.273-23.273 23.273H372.364c-13.964 0-23.273-9.309-23.273-23.273s9.309-23.272 23.273-23.272z m279.272 0h23.273c13.964 0 23.273 9.309 23.273 23.272s-9.31 23.273-23.273 23.273h-23.273c-13.963 0-23.272-9.309-23.272-23.273s9.309-23.272 23.272-23.272z" p-id="74547" fill="#bfbfbf"></path></svg>